<?xml version="1.0" encoding="UTF-8" standalone="no"?>
<!DOCTYPE svg PUBLIC "-//W3C//DTD SVG 1.1//EN" "http://www.w3.org/Graphics/SVG/1.1/DTD/svg11.dtd">
<svg xmlns="http://www.w3.org/2000/svg" version="1.1" viewBox="0.00 0.00 1024.00 1024.00">
<g stroke-width="2.00" fill="none" stroke-linecap="butt">
<path stroke="#bd99df" vector-effect="non-scaling-stroke" d="
  M 551.51 325.13
  Q 560.49 326.79 569.01 329.85"
/>
<path stroke="#80dae6" vector-effect="non-scaling-stroke" d="
  M 497.95 322.47
  Q 493.51 319.18 487.68 317.86"
/>
<path stroke="#f8b6cd" vector-effect="non-scaling-stroke" d="
  M 441.63 297.95
  Q 433.76 293.97 422.98 293.65"
/>
<path stroke="#bd99df" vector-effect="non-scaling-stroke" d="
  M 406.80 315.04
  L 418.94 314.59"
/>
<path stroke="#f8b6cd" vector-effect="non-scaling-stroke" d="
  M 422.80 314.82
  L 431.11 315.75"
/>
<path stroke="#80dae6" vector-effect="non-scaling-stroke" d="
  M 574.18 350.46
  L 591.95 350.52"
/>
<path stroke="#f8b6cd" vector-effect="non-scaling-stroke" d="
  M 629.73 350.59
  L 632.97 350.59"
/>
<path stroke="#bd99df" vector-effect="non-scaling-stroke" d="
  M 632.97 350.59
  Q 633.12 350.59 633.28 350.58"
/>
<path stroke="#bd99df" vector-effect="non-scaling-stroke" d="
  M 658.15 350.66
  L 675.28 350.54"
/>
<path stroke="#f8b6cd" vector-effect="non-scaling-stroke" d="
  M 634.01 292.69
  Q 625.11 290.86 615.74 291.99"
/>
<path stroke="#b650ad" vector-effect="non-scaling-stroke" d="
  M 633.21 349.97
  L 632.21 350.26
  A 0.17 0.17 0.0 0 0 632.26 350.59
  L 632.97 350.59"
/>
<path stroke="#3e74c6" vector-effect="non-scaling-stroke" d="
  M 638.67 416.19
  Q 638.50 416.91 638.70 416.80"
/>
<path stroke="#7890b3" vector-effect="non-scaling-stroke" d="
  M 638.70 416.80
  Q 633.03 425.26 632.58 434.75
  Q 632.41 438.41 635.43 439.01"
/>
<path stroke="#80dae6" vector-effect="non-scaling-stroke" d="
  M 662.00 625.13
  Q 652.32 633.46 640.04 636.23"
/>
<path stroke="#b650ad" vector-effect="non-scaling-stroke" d="
  M 638.70 416.80
  Q 638.40 416.89 639.02 416.48"
/>
<path stroke="#80dae6" vector-effect="non-scaling-stroke" d="
  M 375.70 636.24
  Q 364.38 633.54 355.60 626.19"
/>
<path stroke="#7890b3" vector-effect="non-scaling-stroke" d="
  M 382.57 444.79
  Q 385.08 443.70 385.12 441.06
  Q 385.24 432.75 381.46 425.04"
/>
<path stroke="#7890b3" vector-effect="non-scaling-stroke" d="
  M 521.90 393.61
  Q 519.54 401.92 515.42 409.90"
/>
<path stroke="#7890b3" vector-effect="non-scaling-stroke" d="
  M 488.22 418.03
  Q 493.06 407.58 496.21 397.38"
/>
<path stroke="#7890b3" vector-effect="non-scaling-stroke" d="
  M 527.55 420.22
  Q 522.48 431.02 520.04 440.50"
/>
</g>
<g fill="#ffffff">
<path d="
  M 551.51 325.13
  Q 560.49 326.79 569.01 329.85
  L 570.70 331.84
  A 1.61 1.56 -69.7 0 1 571.07 332.68
  Q 571.50 336.33 570.85 337.68
  Q 568.57 342.39 563.46 341.93
  C 539.85 339.80 518.89 333.00 497.95 322.47
  Q 493.51 319.18 487.68 317.86
  Q 468.79 308.65 463.62 306.39
  Q 456.61 303.32 441.63 297.95
  Q 433.76 293.97 422.98 293.65
  Q 415.91 291.90 410.50 291.91
  C 401.89 291.93 389.40 291.24 380.94 292.66
  Q 358.74 296.40 344.96 314.44
  C 336.63 325.36 334.44 338.21 334.35 351.51
  Q 334.31 358.58 334.25 391.03
  A 0.76 0.76 0.0 0 1 333.49 391.79
  L 327.68 391.79
  A 1.15 1.11 -54.2 0 0 327.29 391.86
  Q 324.01 393.06 320.00 392.58
  A 1.83 1.80 -52.4 0 0 319.07 392.71
  L 318.12 393.11
  A 0.58 0.58 0.0 0 1 317.32 392.58
  Q 317.32 387.11 317.15 354.73
  Q 317.06 337.93 318.78 330.40
  C 324.93 303.35 346.18 282.80 372.87 276.66
  Q 381.15 274.75 393.78 274.79
  Q 410.70 274.85 415.25 274.95
  Q 416.14 274.97 427.99 276.57
  Q 434.18 277.41 440.55 279.20
  Q 459.11 284.42 473.37 291.39
  C 492.12 300.55 502.19 306.10 517.00 312.46
  Q 530.45 318.24 532.30 318.96
  Q 539.71 321.85 551.51 325.13
  Z"
/>
<path d="
  M 406.80 315.04
  L 418.94 314.59
  L 422.80 314.82
  L 431.11 315.75
  Q 454.12 319.09 475.21 328.36
  Q 484.01 332.23 492.81 336.17
  Q 519.86 348.29 546.00 350.19
  Q 552.62 350.67 574.18 350.46
  L 591.95 350.52
  Q 598.24 351.11 601.25 351.01
  Q 615.15 350.55 629.73 350.59
  L 632.97 350.59
  Q 633.12 350.59 633.28 350.58
  L 658.15 350.66
  L 675.28 350.54
  L 680.99 350.68
  A 0.52 0.52 0.0 0 0 681.52 350.18
  C 682.60 320.99 663.20 296.78 634.01 292.69
  Q 625.11 290.86 615.74 291.99
  Q 561.95 292.13 508.25 292.02
  Q 505.35 292.01 502.57 289.33
  Q 500.45 287.28 500.36 283.46
  Q 500.23 277.98 504.58 276.03
  Q 506.93 274.99 513.56 274.99
  Q 584.47 275.00 625.10 274.95
  Q 635.82 274.94 642.55 276.44
  C 671.22 282.87 692.04 304.59 697.68 332.87
  Q 699.18 340.39 699.13 352.81
  Q 699.02 377.32 699.09 385.01
  Q 699.10 386.88 698.87 388.74
  A 0.56 0.55 5.3 0 1 698.27 389.23
  Q 695.58 389.05 694.85 388.87
  Q 689.05 387.40 682.62 387.87
  A 0.87 0.87 0.0 0 1 681.69 387.00
  L 681.69 368.29
  A 0.48 0.48 0.0 0 0 681.19 367.81
  Q 679.49 367.89 674.80 367.93
  Q 646.59 368.20 555.00 367.96
  C 552.93 367.96 550.85 367.60 548.66 367.53
  Q 529.03 366.88 512.66 362.08
  C 483.85 353.64 458.06 336.19 427.74 332.80
  Q 422.61 332.23 422.02 331.92
  A 1.49 1.43 59.5 0 0 421.27 331.71
  L 407.32 331.54
  A 2.07 1.94 -30.9 0 1 406.58 331.38
  Q 400.55 328.85 400.77 322.36
  C 400.84 320.19 401.97 317.57 403.76 316.73
  Q 406.17 315.61 406.80 315.04
  Z"
/>
<path d="
  M 699.19 440.66
  A 0.48 0.48 0.0 0 1 698.31 440.93
  Q 692.20 431.99 682.78 426.38
  A 1.32 1.31 -74.8 0 1 682.14 425.25
  L 682.14 416.87
  A 0.97 0.97 0.0 0 1 682.91 415.92
  Q 690.61 414.25 698.62 414.39
  A 0.59 0.58 -89.5 0 1 699.19 414.98
  L 699.19 440.66
  Z"
/>
<path d="
  M 318.04 445.00
  A 0.43 0.43 0.0 0 1 317.28 444.73
  L 317.28 417.89
  A 0.61 0.60 1.4 0 1 317.92 417.29
  L 326.70 417.71
  A 4.05 3.62 -31.1 0 1 327.70 417.90
  Q 329.35 418.47 333.31 418.94
  A 0.72 0.72 0.0 0 1 333.95 419.66
  L 333.95 429.53
  A 1.34 1.34 0.0 0 1 333.40 430.61
  Q 325.04 436.64 318.04 445.00
  Z"
/>
<path d="
  M 355.60 626.19
  Q 364.38 633.54 375.70 636.24
  Q 382.59 637.81 388.25 637.81
  Q 508.38 637.75 628.50 637.82
  Q 633.38 637.82 640.04 636.23
  Q 652.32 633.46 662.00 625.13
  Q 681.68 607.78 681.77 582.24
  Q 681.96 521.99 681.82 458.53
  A 0.39 0.39 0.0 0 1 682.42 458.19
  Q 691.30 463.72 698.52 470.25
  A 1.70 1.69 14.8 0 1 699.02 471.10
  Q 699.19 471.79 699.19 474.25
  Q 699.19 525.56 699.09 574.75
  C 699.07 581.46 699.04 587.94 698.07 594.01
  C 693.31 623.89 670.90 648.30 640.91 653.93
  Q 635.14 655.01 612.03 655.02
  Q 394.85 655.12 384.25 655.07
  Q 383.05 655.07 380.22 654.75
  C 350.87 651.52 325.04 628.64 319.01 599.01
  Q 317.86 593.38 317.36 591.57
  A 4.27 4.01 -54.5 0 1 317.21 590.46
  L 317.21 474.82
  A 0.71 0.70 72.7 0 1 317.51 474.24
  L 333.43 463.15
  A 0.49 0.49 0.0 0 1 334.20 463.54
  Q 334.40 468.67 334.40 472.01
  Q 334.32 515.76 334.41 581.37
  Q 334.41 585.40 334.94 588.08
  C 335.53 591.05 335.61 593.63 336.49 596.96
  Q 341.12 614.38 355.60 626.19
  Z"
/>
</g>
<g fill="#f06c9a">
<path d="
  M 634.01 292.69
  L 633.89 298.62
  A 1.57 1.57 0.0 0 1 632.32 300.15
  L 617.27 300.15
  A 1.37 1.36 -0.6 0 1 615.90 298.82
  L 615.74 291.99
  Q 625.11 290.86 634.01 292.69
  Z"
/>
<path d="
  M 441.63 297.95
  Q 440.43 300.14 440.63 301.83
  A 0.77 0.77 0.0 0 1 439.87 302.69
  L 423.80 302.69
  A 0.86 0.85 90.0 0 1 422.95 301.83
  L 422.98 293.65
  Q 433.76 293.97 441.63 297.95
  Z"
/>
<rect x="531.56" y="296.38" width="18.16" height="9.44" rx="0.91"/>
<rect x="-8.82" y="-4.73" transform="translate(624.74,307.78) rotate(-0.4)" width="17.64" height="9.46" rx="1.05"/>
<path d="
  M 431.11 315.75
  L 422.80 314.82
  L 422.88 306.95
  A 0.89 0.88 -89.7 0 1 423.76 306.07
  L 439.80 306.07
  A 1.19 1.18 90.0 0 1 440.98 307.26
  L 440.98 313.91
  A 1.31 1.30 88.4 0 1 439.75 315.22
  L 431.11 315.75
  Z"
/>
<rect x="-8.97" y="-4.69" transform="translate(540.46,313.51) rotate(0.9)" width="17.94" height="9.38" rx="1.54"/>
<rect x="-8.70" y="-4.71" transform="translate(624.87,320.11) rotate(0.1)" width="17.40" height="9.42" rx="0.97"/>
<rect x="-8.90" y="-4.88" transform="translate(389.03,321.63) rotate(-0.9)" width="17.80" height="9.76" rx="1.43"/>
<rect x="-8.79" y="-4.60" transform="translate(624.97,332.66) rotate(0.3)" width="17.58" height="9.20" rx="1.05"/>
<path d="
  M 633.21 349.97
  L 632.21 350.26
  A 0.17 0.17 0.0 0 0 632.26 350.59
  L 632.97 350.59
  L 629.73 350.59
  L 617.76 350.13
  A 1.66 1.65 -88.9 0 1 616.17 348.47
  L 616.17 342.07
  A 1.49 1.48 90.0 0 1 617.65 340.58
  L 633.04 340.58
  A 0.66 0.65 -4.0 0 1 633.69 341.14
  C 633.96 343.06 634.53 348.33 633.21 349.97
  Z"
/>
<rect x="-8.78" y="-4.67" transform="translate(603.76,345.56) rotate(-0.3)" width="17.56" height="9.34" rx="1.37"/>
<path d="
  M 496.21 397.38
  Q 493.06 407.58 488.22 418.03
  L 478.19 391.39
  A 0.40 0.40 0.0 0 1 478.56 390.85
  L 492.73 390.85
  A 1.27 1.25 78.8 0 1 493.89 391.64
  L 496.21 397.38
  Z"
/>
<path d="
  M 527.55 420.22
  Q 522.48 431.02 520.04 440.50
  C 518.73 443.00 515.22 449.77 516.14 452.09
  C 534.63 498.50 544.29 524.63 567.63 586.37
  C 568.46 588.58 569.67 591.50 572.49 591.60
  Q 576.36 591.73 577.69 587.90
  Q 580.38 580.13 586.44 564.65
  Q 592.54 549.05 624.28 466.26
  Q 624.64 465.32 624.95 465.10
  A 0.66 0.66 0.0 0 1 625.96 465.41
  Q 628.86 473.54 630.86 483.14
  C 631.74 487.35 630.46 490.91 628.95 494.94
  Q 622.47 512.13 590.79 594.57
  Q 586.50 605.72 575.59 607.21
  C 569.57 608.03 561.91 605.80 558.62 600.90
  Q 555.31 595.98 552.87 589.27
  Q 545.16 568.11 523.32 511.03
  C 517.76 496.51 513.63 484.90 508.16 471.93
  A 0.51 0.51 0.0 0 0 507.21 471.96
  C 493.43 509.29 479.06 545.84 462.96 588.04
  C 459.87 596.13 458.23 601.55 451.41 605.32
  C 441.20 610.97 429.14 606.26 424.74 595.73
  C 417.69 578.84 411.07 560.01 404.33 542.87
  Q 393.54 515.44 386.26 495.50
  C 385.09 492.29 385.84 490.31 386.88 486.21
  Q 389.13 477.32 390.70 472.60
  A 0.73 0.73 0.0 0 1 392.04 472.49
  Q 393.38 475.00 394.41 477.61
  Q 425.82 556.72 436.37 585.43
  C 437.23 587.77 438.19 590.37 440.41 591.54
  C 442.91 592.85 445.33 591.51 446.34 589.30
  Q 448.96 583.59 453.39 571.89
  Q 477.94 507.14 485.78 487.26
  Q 500.21 450.67 513.76 414.62
  Q 514.70 412.12 515.42 409.90
  Q 519.54 401.92 521.90 393.61
  L 522.50 391.63
  A 1.15 1.14 -81.3 0 1 523.59 390.82
  L 537.73 390.82
  A 0.72 0.71 -79.5 0 1 538.39 391.79
  L 527.55 420.22
  Z"
/>
<path d="
  M 635.43 439.01
  Q 632.41 438.41 632.58 434.75
  Q 633.03 425.26 638.70 416.80
  Q 638.40 416.89 639.02 416.48
  Q 644.40 409.50 650.40 405.42
  C 663.31 396.62 678.82 390.72 694.81 394.54
  Q 708.62 397.85 718.83 407.42
  A 0.48 0.48 0.0 0 1 718.51 408.25
  Q 710.77 408.29 697.83 408.50
  Q 693.92 408.57 688.74 409.52
  Q 680.24 411.09 679.74 411.19
  Q 665.06 414.12 654.16 423.50
  A 0.39 0.39 0.0 0 0 654.40 424.19
  C 666.57 424.60 678.15 428.40 687.05 436.64
  Q 698.94 447.65 702.01 463.22
  A 0.57 0.57 0.0 0 1 701.11 463.79
  Q 694.35 458.75 689.93 455.57
  Q 683.68 451.08 671.71 446.04
  C 659.47 440.90 648.72 437.97 635.43 439.01
  Z"
/>
<path d="
  M 381.46 425.04
  Q 385.24 432.75 385.12 441.06
  Q 385.08 443.70 382.57 444.79
  C 365.46 442.73 347.43 447.78 333.12 456.39
  Q 324.35 461.66 316.23 467.38
  A 0.60 0.60 0.0 0 1 315.30 466.76
  C 318.84 450.39 329.52 437.86 345.28 432.09
  Q 354.88 428.58 363.99 428.86
  A 0.22 0.22 0.0 0 0 364.14 428.48
  Q 355.62 420.99 345.90 417.17
  Q 339.37 414.61 326.62 412.55
  Q 313.53 410.44 300.82 410.56
  A 0.70 0.70 0.0 0 1 300.11 409.85
  Q 300.12 408.75 301.44 407.89
  Q 311.45 401.32 319.37 399.04
  Q 322.78 398.06 324.78 398.04
  C 327.32 398.00 329.28 397.16 332.09 397.21
  Q 339.63 397.35 345.29 398.96
  C 359.29 402.96 373.68 412.26 381.46 425.04
  Z"
/>
<path d="
  M 479.8810 720.9135
  A 33.11 31.90 -2.4 0 1 448.1358 754.1720
  A 33.11 31.90 -2.4 0 1 413.7190 723.6865
  A 33.11 31.90 -2.4 0 1 445.4642 690.4280
  A 33.11 31.90 -2.4 0 1 479.8810 720.9135
  Z
  M 445.0028 703.8819
  A 18.46 17.87 -95.4 0 0 428.9493 723.9417
  A 18.46 17.87 -95.4 0 0 448.4772 740.6381
  A 18.46 17.87 -95.4 0 0 464.5307 720.5783
  A 18.46 17.87 -95.4 0 0 445.0028 703.8819
  Z"
/>
<path d="
  M 284.14 752.27
  Q 284.04 751.98 284.26 751.50
  Q 299.67 717.41 310.31 691.96
  A 0.90 0.89 -78.7 0 1 311.14 691.40
  L 323.31 691.40
  A 1.31 1.30 78.4 0 1 324.51 692.20
  C 333.16 712.91 342.04 733.51 350.99 751.85
  A 0.64 0.64 0.0 0 1 350.41 752.77
  L 336.15 752.77
  A 1.08 1.08 0.0 0 1 335.16 752.12
  L 330.04 739.94
  A 0.54 0.51 -10.6 0 0 329.55 739.62
  L 305.48 739.62
  A 1.85 1.84 11.1 0 0 303.77 740.76
  L 299.44 751.23
  A 2.10 2.09 9.0 0 1 297.67 752.51
  Q 292.54 752.90 285.01 752.89
  Q 284.36 752.89 284.14 752.27
  Z
  M 309.79 726.81
  A 0.30 0.30 0.0 0 0 310.06 727.23
  L 324.08 727.25
  A 0.30 0.30 0.0 0 0 324.35 726.84
  L 317.38 710.37
  A 0.30 0.30 0.0 0 0 316.82 710.37
  L 309.79 726.81
  Z"
/>
<path d="
  M 755.67 752.80
  L 708.46 752.80
  A 0.54 0.54 0.0 0 1 707.92 752.26
  L 707.92 691.98
  A 0.54 0.54 0.0 0 1 708.46 691.44
  L 754.73 691.44
  A 0.54 0.54 0.0 0 1 755.27 691.98
  L 755.27 703.77
  A 0.54 0.54 0.0 0 1 754.73 704.31
  L 723.03 704.31
  A 0.54 0.54 0.0 0 0 722.49 704.85
  L 722.49 715.20
  A 0.54 0.54 0.0 0 0 723.03 715.74
  L 750.77 715.74
  A 0.54 0.54 0.0 0 1 751.31 716.28
  L 751.31 727.70
  A 0.54 0.54 0.0 0 1 750.77 728.24
  L 723.00 728.24
  A 0.54 0.54 0.0 0 0 722.46 728.78
  L 722.46 739.69
  A 0.54 0.54 0.0 0 0 723.00 740.23
  L 755.67 740.23
  A 0.54 0.54 0.0 0 1 756.21 740.77
  L 756.21 752.26
  A 0.54 0.54 0.0 0 1 755.67 752.80
  Z"
/>
<path d="
  M 256.63 732.11
  A 0.16 0.16 0.0 0 0 256.93 732.11
  L 273.41 692.22
  A 0.93 0.93 0.0 0 1 274.27 691.65
  L 287.83 691.65
  A 0.84 0.84 0.0 0 1 288.58 692.86
  Q 285.91 698.34 284.19 702.40
  Q 268.77 738.86 264.79 748.57
  C 263.99 750.50 263.47 752.69 260.99 752.77
  Q 255.73 752.95 251.05 752.90
  A 2.16 2.16 0.0 0 1 249.09 751.58
  L 224.26 692.53
  A 0.64 0.64 0.0 0 1 224.85 691.64
  L 238.73 691.64
  A 1.33 1.33 0.0 0 1 239.96 692.46
  L 256.63 732.11
  Z"
/>
<path d="
  M 358.48 691.52
  C 371.48 691.60 380.12 690.99 390.88 692.37
  C 396.86 693.13 403.74 697.73 406.21 703.36
  C 410.16 712.36 408.51 724.93 399.86 730.62
  C 392.01 735.77 381.50 735.86 373.04 735.53
  A 0.56 0.56 0.0 0 0 372.45 736.09
  L 372.45 752.09
  A 0.70 0.69 -0.0 0 1 371.75 752.78
  L 358.58 752.78
  A 0.79 0.79 0.0 0 1 357.79 751.99
  L 357.79 692.20
  A 0.69 0.68 -0.0 0 1 358.48 691.52
  Z
  M 372.55 704.60
  L 372.49 722.70
  A 0.21 0.21 0.0 0 0 372.70 722.91
  L 382.96 722.95
  A 10.59 8.31 0.2 0 0 393.58 714.68
  L 393.58 712.78
  A 10.59 8.31 0.2 0 0 383.02 704.43
  L 372.76 704.39
  A 0.21 0.21 0.0 0 0 372.55 704.60
  Z"
/>
<path d="
  M 489.86 691.74
  Q 506.14 691.45 517.74 691.70
  C 530.34 691.98 541.56 696.80 542.10 711.12
  C 542.43 719.75 538.76 728.19 530.36 731.51
  A 0.66 0.66 0.0 0 0 530.06 732.50
  L 543.42 751.68
  A 0.74 0.73 72.5 0 1 542.82 752.84
  L 528.13 752.84
  A 1.01 1.00 72.8 0 1 527.30 752.40
  L 514.70 734.32
  A 0.90 0.89 72.0 0 0 513.97 733.94
  L 504.91 733.94
  A 0.56 0.56 0.0 0 0 504.35 734.50
  L 504.35 752.12
  A 0.67 0.66 -90.0 0 1 503.69 752.79
  L 490.04 752.79
  A 0.69 0.69 0.0 0 1 489.35 752.10
  L 489.35 692.25
  A 0.51 0.51 0.0 0 1 489.86 691.74
  Z
  M 504.18 705.15
  L 504.26 720.93
  A 0.56 0.56 0.0 0 0 504.82 721.49
  L 518.13 721.42
  A 9.19 8.38 -0.3 0 0 527.28 712.99
  L 527.28 712.85
  A 9.19 8.38 -0.3 0 0 518.05 704.52
  L 504.74 704.59
  A 0.56 0.56 0.0 0 0 504.18 705.15
  Z"
/>
<path d="
  M 578.03 732.15
  A 0.16 0.16 0.0 0 0 578.33 732.15
  L 594.83 692.27
  A 0.93 0.93 0.0 0 1 595.69 691.70
  L 609.25 691.70
  A 0.84 0.84 0.0 0 1 610.00 692.91
  Q 607.32 698.39 605.60 702.45
  Q 590.17 738.91 586.19 748.62
  C 585.39 750.55 584.87 752.74 582.39 752.82
  Q 577.13 753.00 572.45 752.94
  A 2.16 2.16 0.0 0 1 570.49 751.62
  L 545.67 692.56
  A 0.64 0.64 0.0 0 1 546.26 691.67
  L 560.14 691.68
  A 1.33 1.33 0.0 0 1 561.37 692.50
  L 578.03 732.15
  Z"
/>
<rect x="616.30" y="691.68" width="14.92" height="61.12" rx="0.60"/>
<path d="
  M 645.54 691.69
  Q 661.63 691.25 677.23 691.79
  Q 680.89 691.92 685.75 693.74
  C 694.57 697.06 696.21 704.46 694.08 712.75
  Q 692.91 717.31 688.51 720.30
  A 0.50 0.50 0.0 0 0 688.60 721.17
  Q 697.04 724.64 698.01 733.16
  C 698.60 738.31 698.28 743.70 694.06 747.35
  C 688.99 751.74 682.89 752.55 675.90 752.69
  Q 666.16 752.88 645.13 752.77
  A 0.25 0.25 0.0 0 1 644.88 752.52
  L 644.88 692.37
  A 0.68 0.67 89.6 0 1 645.54 691.69
  Z
  M 659.29 704.55
  L 659.53 715.85
  A 0.21 0.21 0.0 0 0 659.74 716.05
  L 672.13 715.79
  A 8.10 4.89 -1.2 0 0 680.13 710.73
  L 680.09 708.79
  A 8.10 4.89 -1.2 0 0 671.89 704.07
  L 659.50 704.33
  A 0.21 0.21 0.0 0 0 659.29 704.55
  Z
  M 659.49 728.48
  L 659.59 740.30
  A 0.35 0.35 0.0 0 0 659.95 740.64
  L 675.87 740.50
  A 7.90 5.74 -0.5 0 0 683.72 734.69
  L 683.72 733.65
  A 7.90 5.74 -0.5 0 0 675.77 727.98
  L 659.84 728.12
  A 0.35 0.35 0.0 0 0 659.49 728.48
  Z"
/>
</g>
<g fill="#00b4cc">
<rect x="-8.53" y="-4.70" transform="translate(389.48,298.69) rotate(0.5)" width="17.06" height="9.40" rx="1.25"/>
<rect x="-8.92" y="-4.71" transform="translate(520.10,301.09) rotate(0.8)" width="17.84" height="9.42" rx="1.31"/>
<rect x="-8.86" y="-4.72" transform="translate(368.65,310.45) rotate(0.2)" width="17.72" height="9.44" rx="1.17"/>
<rect x="-8.80" y="-4.67" transform="translate(645.46,320.44) rotate(0.3)" width="17.60" height="9.34" rx="1.25"/>
<rect x="360.06" y="317.43" width="17.48" height="9.80" rx="1.10"/>
<path d="
  M 487.68 317.86
  Q 493.51 319.18 497.95 322.47
  L 497.58 326.22
  A 1.22 1.21 2.9 0 1 496.37 327.31
  L 481.10 327.31
  A 1.91 1.90 -0.0 0 1 479.19 325.41
  L 479.19 319.30
  A 1.78 1.78 0.0 0 1 481.06 317.52
  L 487.68 317.86
  Z"
/>
<rect x="-8.77" y="-4.69" transform="translate(645.36,332.40) rotate(0.1)" width="17.54" height="9.38" rx="1.10"/>
<path d="
  M 591.95 350.52
  L 574.18 350.46
  L 574.09 342.36
  A 1.07 1.07 0.0 0 1 575.16 341.28
  L 590.93 341.28
  A 1.09 1.08 0.3 0 1 592.02 342.37
  L 591.95 350.52
  Z"
/>
<path d="
  M 638.67 416.19
  Q 638.50 416.91 638.70 416.80
  Q 633.03 425.26 632.58 434.75
  Q 632.41 438.41 635.43 439.01
  Q 646.40 468.98 653.46 499.71
  Q 658.70 522.52 661.15 545.62
  C 663.60 568.67 664.25 589.27 662.33 609.55
  Q 662.33 609.56 661.13 621.73
  Q 660.85 624.61 662.00 625.13
  Q 652.32 633.46 640.04 636.23
  Q 646.24 607.81 647.18 579.15
  Q 647.41 572.15 647.20 565.84
  C 646.97 558.93 647.21 554.36 646.64 548.12
  Q 643.80 517.27 640.30 499.31
  Q 636.71 480.86 631.99 463.98
  Q 629.49 455.02 626.51 447.25
  A 0.64 0.64 0.0 0 0 625.42 447.07
  Q 622.55 450.58 620.04 455.02
  Q 608.06 476.20 602.45 498.99
  A 0.57 0.56 28.0 0 1 601.52 499.27
  Q 601.02 498.80 600.54 497.76
  Q 590.77 476.08 601.12 455.11
  Q 605.69 445.85 613.20 439.56
  A 0.28 0.28 0.0 0 0 613.00 439.06
  Q 594.30 440.13 578.42 448.86
  Q 570.03 453.47 559.31 460.10
  A 0.60 0.59 78.1 0 1 558.41 459.51
  Q 558.87 456.04 559.94 453.15
  Q 567.32 433.38 587.11 426.40
  Q 596.87 422.96 606.80 423.82
  A 0.51 0.51 0.0 0 0 607.10 422.87
  Q 594.85 415.76 580.70 412.82
  Q 571.43 410.90 559.52 409.57
  A 0.61 0.61 0.0 0 1 559.01 408.77
  Q 559.13 408.40 559.44 408.17
  C 579.19 393.13 604.13 396.98 621.70 413.50
  A 0.63 0.62 27.7 0 0 622.74 413.18
  Q 626.56 395.33 641.56 385.35
  C 652.12 378.32 662.56 378.33 674.88 379.61
  A 0.95 0.94 32.9 0 1 675.26 381.37
  Q 661.75 389.15 650.67 399.15
  Q 642.99 406.08 638.67 416.19
  Z"
/>
<path d="
  M 375.70 636.24
  Q 364.38 633.54 355.60 626.19
  Q 355.77 625.52 355.56 624.66
  Q 355.33 623.77 355.29 623.17
  Q 353.54 597.71 353.57 591.25
  Q 353.75 556.60 360.54 519.64
  Q 362.37 509.68 365.71 497.12
  Q 370.55 478.96 371.83 474.86
  Q 374.21 467.27 382.57 444.79
  Q 385.08 443.70 385.12 441.06
  Q 385.24 432.75 381.46 425.04
  Q 375.17 409.40 364.13 400.63
  Q 354.18 392.72 343.47 385.67
  A 0.61 0.61 0.0 0 1 343.76 384.55
  C 351.11 383.99 358.92 383.58 365.74 385.47
  Q 371.22 386.99 377.53 391.20
  C 388.19 398.32 393.26 408.26 396.00 420.46
  A 0.49 0.48 61.8 0 0 396.81 420.71
  C 413.59 404.45 440.42 402.03 458.83 417.17
  Q 459.21 417.48 459.37 417.83
  A 0.66 0.65 77.1 0 1 458.80 418.75
  Q 443.05 419.21 428.23 423.27
  Q 419.01 425.79 411.55 430.27
  A 0.46 0.46 0.0 0 0 411.80 431.12
  C 432.24 430.49 450.50 441.65 457.37 461.13
  Q 458.83 465.25 459.02 469.06
  A 0.37 0.36 -75.2 0 1 458.46 469.39
  Q 446.32 461.54 432.11 453.88
  Q 419.85 447.28 405.55 445.99
  A 0.39 0.39 0.0 0 0 405.24 446.66
  Q 419.17 459.77 421.28 477.48
  C 422.47 487.46 420.61 497.86 415.84 506.35
  Q 415.54 506.88 415.22 507.01
  A 0.75 0.75 0.0 0 1 414.21 506.46
  Q 412.46 497.97 408.37 485.36
  Q 402.68 467.80 391.79 453.09
  A 0.52 0.52 0.0 0 0 390.89 453.20
  C 386.09 465.12 383.30 476.07 380.10 488.62
  C 375.27 507.56 372.48 528.33 370.65 548.69
  Q 369.71 559.15 369.61 567.85
  Q 369.19 602.35 375.70 636.24
  Z"
/>
<path d="
  M 521.90 393.61
  Q 519.54 401.92 515.42 409.90
  C 514.42 408.87 514.21 407.44 513.50 406.70
  C 511.42 404.50 508.21 405.08 507.10 408.18
  Q 500.07 427.90 493.60 445.12
  Q 481.31 477.88 445.32 572.49
  Q 444.36 575.00 443.10 575.78
  A 2.18 2.18 0.0 0 1 439.93 574.73
  Q 431.27 552.89 418.88 520.38
  Q 418.13 518.41 418.21 516.56
  A 1.67 1.66 -23.3 0 1 418.63 515.51
  Q 423.91 509.45 426.45 501.37
  A 0.52 0.52 0.0 0 1 427.44 501.34
  L 441.58 539.29
  A 0.57 0.57 0.0 0 0 442.65 539.29
  L 488.22 418.03
  Q 493.06 407.58 496.21 397.38
  Q 498.45 394.20 499.76 393.48
  Q 511.05 387.24 521.90 393.61
  Z"
/>
<path d="
  M 527.55 420.22
  Q 543.14 459.58 557.61 498.60
  Q 562.92 512.92 565.36 519.05
  Q 570.19 531.21 572.77 539.57
  A 0.43 0.43 0.0 0 0 573.58 539.60
  L 590.37 496.16
  A 0.67 0.67 0.0 0 1 591.62 496.14
  Q 594.78 503.50 599.19 509.68
  A 2.39 2.34 -64.2 0 1 599.61 510.93
  Q 599.67 512.27 598.93 514.19
  Q 589.60 538.51 575.63 573.37
  C 574.17 577.03 571.45 576.39 570.25 573.22
  Q 545.24 507.24 520.04 440.50
  Q 522.48 431.02 527.55 420.22
  Z"
/>
</g>
<g fill="#7b33bf">
<path d="
  M 418.94 314.59
  L 406.80 315.04
  L 402.79 314.68
  A 1.82 1.82 0.0 0 1 401.13 312.87
  L 401.13 307.21
  A 1.68 1.68 0.0 0 1 402.81 305.53
  L 418.13 305.53
  A 0.89 0.89 0.0 0 1 419.02 306.43
  L 418.94 314.59
  Z"
/>
<path d="
  M 569.01 329.85
  Q 560.49 326.79 551.51 325.13
  Q 552.24 322.93 552.15 320.53
  A 1.11 1.11 0.0 0 1 553.26 319.38
  L 569.26 319.38
  A 0.75 0.74 84.9 0 1 569.99 320.00
  Q 571.06 325.72 569.01 329.85
  Z"
/>
<rect x="595.03" y="328.85" width="17.68" height="9.52" rx="1.34"/>
<path d="
  M 675.28 350.54
  L 658.15 350.66
  L 657.80 341.94
  A 1.08 1.08 0.0 0 1 658.88 340.82
  L 674.56 340.82
  A 0.90 0.90 0.0 0 1 675.46 341.74
  L 675.28 350.54
  Z"
/>
<path d="
  M 633.21 349.97
  L 633.28 350.58
  Q 633.12 350.59 632.97 350.59
  L 632.26 350.59
  A 0.17 0.17 0.0 0 1 632.21 350.26
  L 633.21 349.97
  Z"
/>
<path d="
  M 638.67 416.19
  Q 638.84 416.41 639.02 416.48
  Q 638.40 416.89 638.70 416.80
  Q 638.50 416.91 638.67 416.19
  Z"
/>
</g>
</svg>
