<?xml version="1.0" encoding="UTF-8" standalone="no"?>
<!DOCTYPE svg PUBLIC "-//W3C//DTD SVG 1.1//EN" "http://www.w3.org/Graphics/SVG/1.1/DTD/svg11.dtd">
<svg xmlns="http://www.w3.org/2000/svg" version="1.1" viewBox="0.00 0.00 551.00 101.00">
<g fill="#f06c99">
<path d="
  M 262.8778 50.0671
  A 33.10 31.92 -2.1 0 1 230.9697 83.1786
  A 33.10 31.92 -2.1 0 1 196.7222 52.4929
  A 33.10 31.92 -2.1 0 1 228.6303 19.3814
  A 33.10 31.92 -2.1 0 1 262.8778 50.0671
  Z
  M 228.0660 32.8760
  A 18.47 17.85 -95.2 0 0 211.9635 52.8878
  A 18.47 17.85 -95.2 0 0 231.4140 69.6640
  A 18.47 17.85 -95.2 0 0 247.5165 49.6522
  A 18.47 17.85 -95.2 0 0 228.0660 32.8760
  Z"
/>
<path d="
  M 133.81 81.71
  L 118.87 81.71
  A 0.74 0.72 78.3 0 1 118.20 81.26
  L 113.04 69.02
  A 0.52 0.51 -10.9 0 0 112.56 68.70
  L 87.75 68.70
  A 0.52 0.51 10.9 0 0 87.27 69.02
  L 82.10 80.81
  A 1.63 1.61 -77.9 0 1 80.62 81.78
  L 67.87 81.78
  A 0.69 0.69 0.0 0 1 67.24 80.81
  L 93.47 20.98
  A 0.99 0.98 -78.0 0 1 94.37 20.39
  L 106.30 20.39
  A 1.33 1.33 0.0 0 1 107.53 21.21
  Q 119.87 51.07 134.11 81.23
  A 0.34 0.33 77.1 0 1 133.81 81.71
  Z
  M 92.79 55.77
  A 0.33 0.33 0.0 0 0 93.10 56.23
  L 107.02 56.23
  A 0.33 0.33 0.0 0 0 107.33 55.77
  L 100.36 39.51
  A 0.33 0.33 0.0 0 0 99.76 39.51
  L 92.79 55.77
  Z"
/>
<path d="
  M 39.78 61.43
  L 39.81 61.35
  Q 39.86 61.22 39.91 61.09
  L 56.47 21.15
  A 0.85 0.84 11.6 0 1 57.25 20.64
  L 71.14 20.64
  A 0.52 0.51 11.8 0 1 71.62 21.36
  Q 61.54 44.48 47.14 79.16
  Q 46.09 81.71 44.76 81.78
  C 41.07 81.98 37.33 81.93 33.64 81.85
  A 1.59 1.58 79.1 0 1 32.21 80.88
  L 7.25 21.62
  A 0.73 0.73 0.0 0 1 7.93 20.61
  L 21.80 20.61
  A 1.50 1.50 0.0 0 1 23.19 21.54
  Q 29.75 37.84 36.83 54.39
  Q 38.22 57.64 39.23 61.41
  A 0.29 0.29 0.0 0 0 39.78 61.43
  Z"
/>
<path d="
  M 141.52 20.49
  C 150.00 20.66 160.20 20.14 170.06 20.99
  C 184.13 22.19 192.32 30.37 191.07 45.25
  C 190.09 56.90 180.49 63.10 169.76 64.10
  Q 162.91 64.74 155.94 64.62
  A 0.47 0.47 0.0 0 0 155.47 65.09
  L 155.47 81.21
  A 0.57 0.57 0.0 0 1 154.90 81.78
  L 141.46 81.78
  A 0.69 0.69 0.0 0 1 140.77 81.09
  L 140.77 21.23
  A 0.74 0.74 0.0 0 1 141.52 20.49
  Z
  M 155.48 34.10
  L 155.72 51.48
  A 0.56 0.56 0.0 0 0 156.29 52.03
  L 166.32 51.89
  A 10.39 8.34 -0.8 0 0 176.59 43.40
  L 176.57 41.58
  A 10.39 8.34 -0.8 0 0 166.06 33.39
  L 156.03 33.53
  A 0.56 0.56 0.0 0 0 155.48 34.10
  Z"
/>
<path d="
  M 273.02 20.67
  Q 287.96 20.59 299.25 20.71
  C 311.53 20.83 323.02 24.07 324.90 38.05
  C 326.12 47.14 322.30 56.98 313.38 60.49
  A 0.67 0.67 0.0 0 0 313.08 61.49
  L 326.44 80.75
  A 0.65 0.65 0.0 0 1 325.90 81.77
  L 311.11 81.77
  A 1.07 1.07 0.0 0 1 310.23 81.31
  L 297.76 63.33
  A 0.96 0.94 -17.0 0 0 296.98 62.93
  L 287.99 62.93
  A 0.64 0.64 0.0 0 0 287.35 63.57
  L 287.35 81.11
  A 0.63 0.62 -0.0 0 1 286.72 81.73
  L 272.79 81.73
  A 0.44 0.44 0.0 0 1 272.35 81.29
  L 272.35 21.34
  A 0.67 0.67 0.0 0 1 273.02 20.67
  Z
  M 287.15 34.49
  L 287.23 49.57
  A 1.00 1.00 0.0 0 0 288.23 50.57
  L 300.77 50.50
  A 9.58 8.48 -0.3 0 0 310.31 41.97
  L 310.31 41.85
  A 9.58 8.48 -0.3 0 0 300.69 33.42
  L 288.15 33.49
  A 1.00 1.00 0.0 0 0 287.15 34.49
  Z"
/>
<path d="
  M 361.16 61.45
  L 361.19 61.37
  Q 361.24 61.24 361.29 61.11
  L 377.87 21.22
  A 0.85 0.84 11.6 0 1 378.65 20.71
  L 392.53 20.72
  A 0.52 0.51 11.8 0 1 393.01 21.44
  Q 382.92 44.53 368.49 79.17
  Q 367.44 81.72 366.11 81.79
  C 362.43 81.98 358.69 81.93 355.00 81.85
  A 1.58 1.58 0.0 0 1 353.58 80.88
  L 328.69 21.64
  A 0.73 0.72 -11.3 0 1 329.37 20.63
  L 343.23 20.65
  A 1.50 1.49 -11.0 0 1 344.62 21.58
  Q 351.16 37.87 358.22 54.41
  Q 359.60 57.66 360.61 61.43
  A 0.29 0.29 0.0 0 0 361.16 61.45
  Z"
/>
<rect x="399.26" y="20.66" width="15.06" height="61.12" rx="0.73"/>
<path d="
  M 428.57 20.64
  Q 442.52 20.42 458.27 20.81
  C 471.01 21.13 480.44 26.86 477.15 41.27
  Q 476.05 46.12 471.48 49.36
  A 0.47 0.46 -51.5 0 0 471.57 50.17
  Q 481.93 54.39 481.17 66.56
  Q 480.95 70.25 480.48 71.42
  C 477.02 80.18 466.56 81.63 458.25 81.71
  Q 450.52 81.79 428.31 81.76
  A 0.44 0.44 0.0 0 1 427.87 81.32
  L 427.87 21.34
  A 0.71 0.70 -0.4 0 1 428.57 20.64
  Z
  M 442.26 33.58
  L 442.51 44.81
  A 0.31 0.31 0.0 0 0 442.83 45.12
  L 455.06 44.84
  A 8.21 5.00 -1.3 0 0 463.16 39.65
  L 463.12 37.79
  A 8.21 5.00 -1.3 0 0 454.79 32.98
  L 442.56 33.26
  A 0.31 0.31 0.0 0 0 442.26 33.58
  Z
  M 442.53 57.41
  L 442.59 69.25
  A 0.36 0.36 0.0 0 0 442.95 69.61
  L 458.86 69.53
  A 7.83 5.58 -0.3 0 0 466.66 63.91
  L 466.66 62.51
  A 7.83 5.58 -0.3 0 0 458.80 56.97
  L 442.89 57.05
  A 0.36 0.36 0.0 0 0 442.53 57.41
  Z"
/>
<path d="
  M 538.70 81.76
  L 491.42 81.76
  A 0.50 0.50 0.0 0 1 490.92 81.26
  L 490.92 21.04
  A 0.50 0.50 0.0 0 1 491.42 20.54
  L 537.72 20.54
  A 0.50 0.50 0.0 0 1 538.22 21.04
  L 538.22 32.78
  A 0.50 0.50 0.0 0 1 537.72 33.28
  L 505.96 33.28
  A 0.50 0.50 0.0 0 0 505.46 33.78
  L 505.46 44.29
  A 0.50 0.50 0.0 0 0 505.96 44.79
  L 533.81 44.79
  A 0.50 0.50 0.0 0 1 534.31 45.29
  L 534.31 56.74
  A 0.50 0.50 0.0 0 1 533.81 57.24
  L 505.96 57.24
  A 0.50 0.50 0.0 0 0 505.46 57.74
  L 505.46 68.78
  A 0.50 0.50 0.0 0 0 505.96 69.28
  L 538.70 69.28
  A 0.50 0.50 0.0 0 1 539.20 69.78
  L 539.20 81.26
  A 0.50 0.50 0.0 0 1 538.70 81.76
  Z"
/>
</g>
</svg>
