<?xml version="1.0" encoding="UTF-8" standalone="no"?>
<!DOCTYPE svg PUBLIC "-//W3C//DTD SVG 1.1//EN" "http://www.w3.org/Graphics/SVG/1.1/DTD/svg11.dtd">
<svg xmlns="http://www.w3.org/2000/svg" version="1.1" viewBox="0.00 0.00 452.00 436.00">
<g stroke-width="2.00" fill="none" stroke-linecap="butt">
<path stroke="#bd99e0" vector-effect="non-scaling-stroke" d="
  M 269.53 80.08
  L 286.80 84.38"
/>
<path stroke="#80dae6" vector-effect="non-scaling-stroke" d="
  M 215.96 77.41
  Q 211.34 74.19 205.71 72.84"
/>
<path stroke="#f8acc8" vector-effect="non-scaling-stroke" d="
  M 159.52 53.19
  Q 156.81 50.34 151.41 49.85
  Q 148.89 49.62 146.25 49.05
  Q 143.68 48.49 141.02 48.54"
/>
<path stroke="#bd99e0" vector-effect="non-scaling-stroke" d="
  M 124.69 70.08
  L 136.94 69.59"
/>
<path stroke="#f8acc8" vector-effect="non-scaling-stroke" d="
  M 140.80 69.75
  L 149.36 70.80"
/>
<path stroke="#80dae6" vector-effect="non-scaling-stroke" d="
  M 292.11 105.58
  L 309.99 105.58"
/>
<path stroke="#f8acc8" vector-effect="non-scaling-stroke" d="
  M 336.04 105.64
  L 367.96 105.66"
/>
<path stroke="#bd99e0" vector-effect="non-scaling-stroke" d="
  M 375.48 105.69
  L 393.12 105.61"
/>
<path stroke="#f8acc8" vector-effect="non-scaling-stroke" d="
  M 352.04 47.65
  Q 342.88 45.78 333.66 46.98"
/>
<path stroke="#7886af" vector-effect="non-scaling-stroke" d="
  M 356.13 172.70
  Q 350.96 180.85 350.66 190.00
  Q 350.56 193.26 353.50 194.08"
/>
<path stroke="#80dae6" vector-effect="non-scaling-stroke" d="
  M 380.01 380.17
  Q 372.07 386.89 362.00 390.26
  Q 360.76 390.67 358.03 391.15"
/>
<path stroke="#80dae6" vector-effect="non-scaling-stroke" d="
  M 93.74 391.26
  Q 93.40 390.92 92.81 390.88
  Q 92.08 390.83 91.83 390.76
  Q 81.76 387.92 73.65 381.23"
/>
<path stroke="#7886af" vector-effect="non-scaling-stroke" d="
  M 100.83 199.56
  Q 103.35 198.44 103.25 195.75
  Q 102.91 187.09 99.11 179.26"
/>
<path stroke="#7886af" vector-effect="non-scaling-stroke" d="
  M 239.90 148.87
  L 233.36 165.33"
/>
<path stroke="#7886af" vector-effect="non-scaling-stroke" d="
  M 206.37 173.21
  L 214.27 152.28"
/>
<path stroke="#7886af" vector-effect="non-scaling-stroke" d="
  M 245.55 175.21
  Q 240.64 186.00 237.85 195.48"
/>
</g>
<g fill="#ffffff">
<path d="
  M 269.53 80.08
  L 286.80 84.38
  Q 292.40 93.13 285.62 95.89
  Q 282.34 97.22 275.98 96.41
  Q 244.35 92.36 215.96 77.41
  Q 211.34 74.19 205.71 72.84
  Q 194.01 67.21 182.31 61.68
  Q 174.34 57.91 159.52 53.19
  Q 156.81 50.34 151.41 49.85
  Q 148.89 49.62 146.25 49.05
  Q 143.68 48.49 141.02 48.54
  Q 133.07 46.90 128.75 46.89
  C 117.54 46.88 106.45 46.21 97.55 47.92
  C 76.69 51.91 58.23 67.83 54.02 89.25
  Q 52.44 97.31 52.37 103.61
  Q 52.09 126.69 52.30 146.13
  A 0.67 0.67 0.0 0 1 51.63 146.81
  L 46.01 146.81
  A 3.19 3.12 -53.2 0 0 45.05 146.96
  Q 42.12 147.93 38.27 147.64
  Q 37.44 147.57 36.79 147.83
  Q 35.96 148.16 35.84 148.10
  A 0.88 0.86 -77.9 0 1 35.35 147.33
  Q 35.26 141.87 35.19 104.13
  Q 35.17 92.59 36.64 86.04
  C 43.07 57.46 65.83 35.81 94.72 30.90
  C 106.26 28.94 124.04 30.07 133.45 29.83
  A 3.48 3.37 50.0 0 1 134.42 29.93
  C 137.98 30.82 142.06 30.83 145.17 31.37
  Q 168.42 35.42 190.69 46.10
  C 205.74 53.31 220.05 61.07 235.10 67.52
  Q 248.02 73.06 250.30 73.95
  Q 258.24 77.07 269.53 80.08
  Z"
/>
<path d="
  M 124.69 70.08
  L 136.94 69.59
  L 140.80 69.75
  L 149.36 70.80
  C 153.52 71.86 158.20 72.15 161.81 72.99
  Q 177.98 76.75 192.91 83.11
  Q 193.84 83.51 211.12 91.37
  Q 223.46 96.98 240.42 101.22
  Q 257.67 105.54 274.75 105.50
  Q 288.12 105.46 292.11 105.58
  L 309.99 105.58
  C 317.92 106.24 325.02 105.89 336.04 105.64
  L 367.96 105.66
  L 375.48 105.69
  L 393.12 105.61
  L 399.02 105.68
  A 0.52 0.52 0.0 0 0 399.54 105.18
  Q 400.06 91.19 395.15 80.12
  Q 382.90 52.54 352.04 47.65
  Q 342.88 45.78 333.66 46.98
  Q 281.53 47.12 229.45 47.04
  Q 225.04 47.03 223.28 46.25
  C 218.29 44.02 218.02 40.21 218.79 34.78
  A 2.03 1.93 70.2 0 1 219.23 33.78
  C 221.54 31.06 224.15 30.02 228.08 30.02
  Q 311.53 30.00 333.00 29.90
  C 340.37 29.86 350.09 29.61 357.47 30.88
  C 392.32 36.88 416.62 66.31 416.99 101.50
  Q 417.24 125.86 416.99 143.72
  A 0.55 0.55 0.0 0 1 416.39 144.27
  Q 412.43 143.96 408.55 142.94
  A 1.71 1.42 -31.9 0 0 408.11 142.88
  L 400.42 142.77
  A 0.74 0.73 0.4 0 1 399.69 142.04
  L 399.69 123.36
  A 0.52 0.51 88.9 0 0 399.16 122.84
  Q 389.31 123.11 376.50 123.08
  Q 320.25 122.97 279.34 123.00
  C 271.82 123.00 263.42 122.44 258.00 122.01
  C 238.37 120.45 221.03 114.77 202.49 106.43
  Q 187.52 99.69 175.55 95.19
  Q 153.11 86.74 128.67 86.55
  Q 124.48 86.52 122.73 85.45
  Q 118.08 82.58 118.96 76.10
  Q 119.42 72.72 121.93 71.64
  Q 123.97 70.76 124.69 70.08
  Z"
/>
<path d="
  M 417.19 195.68
  A 0.49 0.49 0.0 0 1 416.30 195.95
  Q 411.90 189.41 404.99 184.25
  Q 401.98 182.01 400.55 180.73
  A 1.44 1.40 -69.9 0 1 400.07 179.66
  L 400.07 172.19
  A 1.31 1.31 0.0 0 1 401.11 170.91
  Q 408.64 169.29 416.55 169.36
  A 0.65 0.64 -90.0 0 1 417.19 170.01
  L 417.19 195.68
  Z"
/>
<path d="
  M 36.06 199.99
  A 0.43 0.43 0.0 0 1 35.30 199.71
  L 35.30 172.73
  A 0.42 0.42 0.0 0 1 35.72 172.31
  Q 43.97 172.30 51.13 173.99
  A 0.90 0.89 0.5 0 1 51.80 174.67
  C 52.26 176.74 52.52 182.40 51.59 184.97
  A 2.32 2.27 82.4 0 1 50.79 186.04
  Q 43.21 191.60 36.06 199.99
  Z"
/>
<path d="
  M 73.65 381.23
  Q 81.76 387.92 91.83 390.76
  Q 92.08 390.83 92.81 390.88
  Q 93.40 390.92 93.74 391.26
  Q 96.85 391.89 100.08 392.37
  Q 103.01 392.81 106.46 392.81
  Q 227.86 392.76 349.25 392.82
  Q 351.81 392.82 358.03 391.15
  Q 360.76 390.67 362.00 390.26
  Q 372.07 386.89 380.01 380.17
  Q 399.72 362.70 399.79 337.00
  Q 399.95 276.07 399.81 213.32
  A 0.40 0.40 0.0 0 1 400.46 213.00
  C 405.86 217.15 411.50 220.54 416.66 225.43
  A 1.73 1.72 -68.0 0 1 417.20 226.71
  Q 417.14 311.12 417.10 333.01
  Q 417.07 347.94 413.95 358.71
  C 405.22 388.80 377.40 410.03 345.75 410.03
  Q 173.26 410.02 110.89 410.16
  Q 98.17 410.19 91.73 408.77
  C 65.13 402.94 42.34 381.28 37.06 354.22
  Q 36.09 349.28 35.50 347.09
  A 7.07 6.73 38.8 0 1 35.26 345.29
  Q 35.19 318.18 35.19 231.46
  Q 35.19 229.55 36.30 228.92
  Q 37.39 228.29 37.43 228.26
  Q 43.80 222.89 51.66 218.20
  A 0.38 0.37 -17.1 0 1 52.23 218.50
  Q 52.39 221.85 52.39 223.75
  Q 52.35 301.49 52.39 333.75
  C 52.39 336.98 52.25 340.19 53.03 343.03
  C 53.55 344.92 53.37 347.03 53.86 349.28
  Q 58.12 368.67 73.65 381.23
  Z"
/>
</g>
<g fill="#f05891">
<path d="
  M 352.04 47.65
  L 351.91 53.75
  A 1.45 1.45 0.0 0 1 350.46 55.17
  L 335.15 55.17
  A 1.14 1.13 -1.3 0 1 334.01 54.09
  L 333.66 46.98
  Q 342.88 45.78 352.04 47.65
  Z"
/>
<path d="
  M 159.52 53.19
  Q 158.56 55.05 158.65 56.67
  A 0.95 0.95 0.0 0 1 157.70 57.68
  L 142.03 57.68
  A 1.11 1.11 0.0 0 1 140.92 56.55
  L 141.02 48.54
  Q 143.68 48.49 146.25 49.05
  Q 148.89 49.62 151.41 49.85
  Q 156.81 50.34 159.52 53.19
  Z"
/>
<rect x="-9.14" y="-4.78" transform="translate(258.65,56.11) rotate(-0.1)" width="18.28" height="9.56" rx="1.07"/>
<rect x="-8.84" y="-4.80" transform="translate(342.76,62.76) rotate(-0.1)" width="17.68" height="9.60" rx="1.07"/>
<path d="
  M 149.36 70.80
  L 140.80 69.75
  L 140.79 62.02
  A 0.93 0.93 0.0 0 1 141.72 61.08
  L 157.41 61.08
  A 1.57 1.57 0.0 0 1 158.98 62.65
  L 158.98 68.60
  A 1.73 1.72 -1.8 0 1 157.36 70.32
  L 149.36 70.80
  Z"
/>
<path d="
  M 249.45 71.53
  L 249.45 65.48
  A 1.73 1.73 0.0 0 1 251.18 63.75
  L 265.84 63.75
  A 1.73 1.73 0.0 0 1 267.57 65.48
  L 267.57 71.53
  A 1.73 1.73 0.0 0 1 265.84 73.26
  L 251.18 73.26
  A 1.73 1.73 0.0 0 1 249.45 71.53
  Z"
/>
<rect x="-8.72" y="-4.73" transform="translate(342.88,75.11) rotate(-0.2)" width="17.44" height="9.46" rx="0.90"/>
<rect x="-8.88" y="-4.86" transform="translate(107.02,76.61) rotate(-0.7)" width="17.76" height="9.72" rx="1.36"/>
<rect x="-8.80" y="-4.63" transform="translate(342.96,87.68) rotate(0.3)" width="17.60" height="9.26" rx="1.12"/>
<path d="
  M 367.96 105.66
  L 336.04 105.64
  Q 335.14 105.20 334.59 104.54
  Q 334.04 103.87 334.06 102.86
  Q 334.12 99.76 334.34 96.15
  A 0.61 0.61 0.0 0 1 334.95 95.57
  L 351.04 95.57
  A 0.95 0.95 0.0 0 1 351.99 96.52
  L 351.99 104.63
  A 0.97 0.97 0.0 0 0 352.95 105.60
  L 367.96 105.66
  Z"
/>
<rect x="-8.79" y="-4.64" transform="translate(321.79,100.56) rotate(-0.6)" width="17.58" height="9.28" rx="1.36"/>
<path d="
  M 214.27 152.28
  L 206.37 173.21
  L 196.14 146.79
  A 0.68 0.67 -10.7 0 1 196.77 145.87
  L 210.67 145.87
  A 1.30 1.28 -11.3 0 1 211.86 146.65
  L 214.27 152.28
  Z"
/>
<path d="
  M 245.55 175.21
  Q 240.64 186.00 237.85 195.48
  L 234.17 204.51
  A 3.37 3.35 45.4 0 0 234.16 207.02
  Q 259.53 271.24 283.79 336.75
  C 284.72 339.28 286.88 346.33 290.16 346.62
  Q 294.03 346.97 295.46 343.21
  Q 306.86 313.25 342.80 220.20
  A 0.50 0.50 0.0 0 1 343.66 220.06
  Q 344.13 220.62 344.40 221.47
  Q 347.51 231.15 349.07 239.43
  C 349.86 243.58 347.01 249.90 345.32 254.31
  Q 335.64 279.61 311.33 343.01
  Q 307.06 354.16 304.79 356.61
  C 299.58 362.25 289.99 364.09 282.72 360.63
  C 276.68 357.75 274.14 352.91 271.75 346.53
  Q 254.87 301.34 238.51 258.56
  Q 229.62 235.29 226.19 226.95
  A 0.49 0.49 0.0 0 0 225.28 226.96
  Q 208.29 272.02 178.01 350.51
  C 174.67 359.18 164.73 364.82 155.54 362.08
  C 146.68 359.42 143.61 353.68 140.44 345.30
  Q 125.68 306.38 110.70 267.85
  Q 107.10 258.60 104.00 249.74
  C 103.21 247.48 103.96 245.14 104.54 242.77
  Q 106.52 234.54 108.15 228.72
  Q 108.45 227.63 108.87 227.23
  A 0.85 0.85 0.0 0 1 110.25 227.53
  Q 134.14 286.52 155.32 342.93
  C 156.91 347.17 162.30 349.14 164.41 344.12
  C 174.07 321.15 184.57 291.43 192.33 271.77
  C 200.32 251.55 204.23 240.58 211.73 221.85
  Q 220.27 200.50 231.89 169.46
  Q 232.70 167.30 233.36 165.33
  L 239.90 148.87
  L 240.51 146.66
  A 1.21 1.20 -82.0 0 1 241.67 145.78
  L 256.02 145.78
  A 0.43 0.42 10.4 0 1 256.42 146.35
  L 245.55 175.21
  Z"
/>
<path d="
  M 353.50 194.08
  Q 350.56 193.26 350.66 190.00
  Q 350.96 180.85 356.13 172.70
  C 362.98 163.18 372.04 157.28 382.91 152.52
  C 401.35 144.45 422.35 148.57 436.85 162.50
  A 0.46 0.46 0.0 0 1 436.53 163.29
  Q 420.73 163.20 411.30 163.83
  Q 406.11 164.17 392.56 167.60
  Q 381.06 170.51 372.33 178.53
  A 0.37 0.36 25.2 0 0 372.56 179.16
  C 389.38 180.21 402.40 186.00 412.19 199.79
  Q 418.12 208.13 419.90 218.34
  A 0.46 0.46 0.0 0 1 419.17 218.79
  Q 410.73 212.43 406.73 209.77
  C 399.89 205.22 391.05 201.43 384.30 198.76
  Q 372.43 194.07 358.50 193.72
  Q 355.77 193.65 353.50 194.08
  Z"
/>
<path d="
  M 99.11 179.26
  Q 102.91 187.09 103.25 195.75
  Q 103.35 198.44 100.83 199.56
  Q 97.11 199.36 92.94 199.27
  C 71.05 198.83 51.38 210.07 34.37 222.34
  A 0.64 0.64 0.0 0 1 33.36 221.71
  C 35.60 209.88 43.03 198.68 53.16 192.10
  Q 65.81 183.88 81.77 183.79
  A 0.24 0.24 0.0 0 0 81.93 183.37
  C 69.74 172.47 55.26 168.44 39.12 166.80
  Q 26.83 165.54 18.88 165.46
  A 0.88 0.88 0.0 0 1 18.35 163.88
  Q 27.35 156.91 38.96 153.57
  C 41.14 152.94 43.25 153.26 45.13 152.77
  Q 48.88 151.80 54.01 152.27
  C 71.41 153.88 89.44 164.83 99.11 179.26
  Z"
/>
</g>
<g fill="#00b4cc">
<rect x="-8.54" y="-4.71" transform="translate(107.49,53.70) rotate(0.6)" width="17.08" height="9.42" rx="1.32"/>
<rect x="-8.94" y="-4.76" transform="translate(238.09,56.10) rotate(1.0)" width="17.88" height="9.52" rx="1.38"/>
<rect x="-8.88" y="-4.71" transform="translate(86.66,65.45) rotate(0.2)" width="17.76" height="9.42" rx="1.21"/>
<rect x="-8.80" y="-4.67" transform="translate(363.47,75.44) rotate(0.4)" width="17.60" height="9.34" rx="1.19"/>
<rect x="78.09" y="72.45" width="17.40" height="9.78" rx="1.08"/>
<path d="
  M 205.71 72.84
  Q 211.34 74.19 215.96 77.41
  L 215.58 80.97
  A 1.47 1.47 0.0 0 1 214.12 82.28
  L 199.03 82.28
  A 1.78 1.78 0.0 0 1 197.25 80.50
  L 197.25 74.18
  A 1.60 1.59 -88.8 0 1 198.91 72.58
  L 205.71 72.84
  Z"
/>
<rect x="-8.79" y="-4.71" transform="translate(363.35,87.40) rotate(0.1)" width="17.58" height="9.42" rx="1.13"/>
<path d="
  M 309.99 105.58
  L 292.11 105.58
  L 292.04 97.44
  A 1.15 1.15 0.0 0 1 293.19 96.29
  L 309.03 96.29
  A 0.90 0.89 -0.0 0 1 309.93 97.18
  L 309.99 105.58
  Z"
/>
<path d="
  M 356.13 172.70
  Q 350.96 180.85 350.66 190.00
  Q 350.56 193.26 353.50 194.08
  Q 359.26 210.31 364.10 226.58
  Q 377.08 270.13 380.50 314.95
  Q 381.26 324.98 381.39 335.61
  Q 381.57 350.85 381.09 356.25
  Q 379.42 374.85 379.18 378.24
  Q 379.04 380.12 380.01 380.17
  Q 372.07 386.89 362.00 390.26
  Q 360.76 390.67 358.03 391.15
  Q 361.46 375.22 362.46 366.24
  Q 363.46 357.22 364.45 348.15
  Q 365.07 342.50 364.98 338.34
  C 364.89 334.03 365.50 329.63 365.23 325.24
  C 364.87 319.11 365.27 312.95 364.86 306.84
  Q 363.57 287.08 359.84 263.26
  Q 357.75 249.89 355.42 240.39
  C 352.04 226.64 349.26 214.79 344.53 202.19
  A 0.58 0.58 0.0 0 0 343.52 202.04
  Q 338.02 209.21 334.05 217.29
  Q 325.32 235.04 320.38 253.96
  A 0.60 0.60 0.0 0 1 319.26 254.08
  C 309.58 234.85 313.19 214.21 327.25 198.34
  C 328.64 196.78 330.09 195.91 331.13 194.67
  A 0.37 0.36 -71.7 0 0 330.83 194.07
  Q 313.02 195.08 297.55 203.25
  Q 288.34 208.11 277.32 215.15
  A 0.63 0.63 0.0 0 1 276.36 214.55
  Q 276.65 211.89 277.90 208.42
  C 285.04 188.53 304.28 177.12 324.93 178.83
  A 0.47 0.47 0.0 0 0 325.21 177.96
  C 310.72 169.33 294.10 166.17 277.49 164.61
  A 0.59 0.59 0.0 0 1 277.00 163.80
  Q 277.28 163.13 277.97 162.65
  C 293.58 151.65 312.16 150.84 328.70 160.32
  Q 335.13 164.00 339.79 168.56
  A 0.53 0.53 0.0 0 0 340.68 168.29
  C 344.94 148.95 360.71 133.84 381.09 134.04
  Q 387.75 134.11 392.91 134.74
  A 0.85 0.85 0.0 0 1 393.24 136.31
  C 378.60 145.03 362.19 156.18 356.13 172.70
  Z"
/>
<path d="
  M 93.74 391.26
  Q 93.40 390.92 92.81 390.88
  Q 92.08 390.83 91.83 390.76
  Q 81.76 387.92 73.65 381.23
  C 72.81 376.48 72.97 370.93 72.61 366.95
  Q 70.72 346.09 72.27 324.25
  Q 72.53 320.56 74.23 303.44
  Q 75.34 292.33 76.54 285.88
  C 78.22 276.94 78.99 270.31 80.96 262.65
  Q 86.71 240.25 89.35 231.61
  Q 93.49 218.05 100.83 199.56
  Q 103.35 198.44 103.25 195.75
  Q 102.91 187.09 99.11 179.26
  Q 91.95 162.13 76.73 151.25
  Q 69.10 145.81 61.54 140.68
  A 0.67 0.67 0.0 0 1 61.87 139.46
  Q 67.93 139.09 73.75 139.09
  C 84.32 139.08 94.03 143.88 101.69 151.16
  C 108.16 157.30 112.19 166.68 113.89 175.46
  A 0.53 0.53 0.0 0 0 114.81 175.71
  C 123.65 165.85 139.06 161.43 151.88 162.24
  C 161.32 162.83 169.65 166.35 176.85 172.16
  Q 177.35 172.57 177.51 173.06
  A 0.51 0.51 0.0 0 1 177.05 173.73
  C 160.14 174.46 144.09 177.06 129.49 185.25
  A 0.42 0.42 0.0 0 0 129.70 186.03
  C 152.25 185.50 174.47 200.12 177.03 223.99
  A 0.34 0.34 0.0 0 1 176.66 224.37
  Q 176.43 224.34 175.91 224.02
  Q 155.28 211.02 144.70 206.29
  Q 134.53 201.75 123.63 200.97
  A 0.44 0.44 0.0 0 0 123.31 201.75
  Q 129.90 207.48 134.32 216.25
  Q 143.95 235.38 136.33 256.21
  Q 135.34 258.92 133.43 261.74
  A 0.60 0.60 0.0 0 1 132.35 261.54
  Q 130.86 254.94 126.79 241.70
  Q 121.16 223.37 109.84 208.13
  A 0.57 0.57 0.0 0 0 108.86 208.25
  C 103.97 220.36 100.91 232.41 97.56 245.76
  Q 94.97 256.05 93.24 266.97
  Q 89.26 292.15 87.94 312.76
  Q 87.17 324.80 88.00 343.24
  Q 89.08 367.19 93.74 391.26
  Z"
/>
<path d="
  M 239.90 148.87
  L 233.36 165.33
  Q 231.99 161.89 231.03 161.25
  C 228.47 159.56 226.01 160.62 225.09 163.22
  Q 218.03 183.07 212.56 197.56
  Q 174.31 298.89 172.16 304.43
  Q 164.33 324.67 162.34 329.53
  A 2.49 2.31 -70.2 0 1 159.48 331.01
  C 158.66 330.77 158.03 330.06 157.69 329.19
  Q 142.56 290.51 136.54 274.42
  Q 136.06 273.15 136.34 271.34
  A 2.01 2.01 0.0 0 1 136.80 270.35
  Q 142.07 264.09 144.40 256.44
  A 0.57 0.57 0.0 0 1 145.48 256.41
  L 159.50 294.19
  A 0.69 0.69 0.0 0 0 160.16 294.64
  Q 160.66 294.62 160.93 293.90
  Q 177.71 248.42 203.74 180.49
  Q 204.16 179.41 204.96 176.81
  Q 205.60 174.73 206.37 173.21
  L 214.27 152.28
  Q 218.04 146.94 225.48 145.70
  Q 233.52 144.36 239.90 148.87
  Z"
/>
<path d="
  M 245.55 175.21
  Q 262.25 217.55 277.82 259.51
  C 282.28 271.55 287.25 283.33 290.82 294.84
  A 0.37 0.37 0.0 0 0 291.52 294.86
  L 308.24 251.34
  A 0.77 0.77 0.0 0 1 309.66 251.31
  Q 312.69 258.32 317.21 264.80
  A 1.93 1.91 25.6 0 1 317.55 265.75
  Q 317.67 267.34 316.81 269.56
  Q 304.42 301.58 293.67 328.18
  C 293.10 329.58 292.13 331.51 290.40 330.62
  Q 288.88 329.85 288.40 328.56
  Q 257.56 247.31 252.52 233.75
  Q 244.33 211.72 237.85 195.48
  Q 240.64 186.00 245.55 175.21
  Z"
/>
</g>
<g fill="#7a33c0">
<path d="
  M 136.94 69.59
  L 124.69 70.08
  Q 123.07 69.58 121.06 69.68
  A 1.85 1.84 -1.5 0 1 119.12 67.84
  L 119.12 62.33
  A 1.75 1.75 0.0 0 1 120.87 60.58
  L 135.96 60.58
  A 1.09 1.09 0.0 0 1 137.05 61.69
  L 136.94 69.59
  Z"
/>
<path d="
  M 286.80 84.38
  L 269.53 80.08
  L 270.15 75.40
  A 1.15 1.15 0.0 0 1 271.29 74.40
  L 287.15 74.40
  A 0.81 0.81 0.0 0 1 287.95 75.08
  Q 289.06 81.46 286.80 84.38
  Z"
/>
<rect x="312.99" y="83.76" width="17.74" height="9.62" rx="1.42"/>
<path d="
  M 393.12 105.61
  L 375.48 105.69
  L 375.88 96.82
  A 0.97 0.97 0.0 0 1 376.85 95.89
  L 392.14 95.89
  A 1.30 1.30 0.0 0 1 393.43 97.02
  Q 394.00 101.16 393.12 105.61
  Z"
/>
</g>
</svg>
